# xmcd CD database file
#
# Track frame offsets:
#	150
#	17167
#	36225
#	63045
#	73790
#	89677
#	106917
#	122317
#	137647
#	155350
#	174897
#	188310
#	204667
#	214575
#	227995
#	245372
#
# Disc length: 3537 seconds
#
# Revision: 0
# Processed by: cddbd v1.4PL0 Copyright (c) Steve Scherf et al.
# Submitted via: Feurio! 1.65 - http://www.feurio.com
#
DISCID=cf0dcf10
DTITLE=Flavium - Nightlife
DYEAR=1998
DGENRE=Bluesrock
TTITLE0=Nightlife
TTITLE1=Slowburn
TTITLE2=Southside Of The City
TTITLE3=Fanny Mea
TTITLE4=I Just Wanna Make Love To You
TTITLE5=You Don't Miss Your Water
TTITLE6=I'm Ready
TTITLE7=That's How Strong My Love Is
TTITLE8=Key To The Highway
TTITLE9=Guilty
TTITLE10=Dust My Broom
TTITLE11=Crossroads
TTITLE12=Shake Your Moneymaker
TTITLE13=Walkin' Blues
TTITLE14=First Love
TTITLE15=Nobody Knows You When You're Down And Out
EXTD=
EXTT0=
EXTT1=
EXTT2=
EXTT3=
EXTT4=
EXTT5=
EXTT6=
EXTT7=
EXTT8=
EXTT9=
EXTT10=
EXTT11=
EXTT12=
EXTT13=
EXTT14=
EXTT15=
PLAYORDER=
